<?xml version="1.0" encoding="UTF-8"?>
<svg width="197px" height="117px" viewBox="0 0 197 117" version="1.1" xmlns="http://www.w3.org/2000/svg" xmlns:xlink="http://www.w3.org/1999/xlink">
    <!-- Generator: Sketch 50.2 (55047) - http://www.bohemiancoding.com/sketch -->
    <title>Untitled</title>
    <desc>Created with Sketch.</desc>
    <defs></defs>
    <g id="Page-1" stroke="none" stroke-width="1" fill="none" fill-rule="evenodd">
        <g id="download" fill="#FFFFFF" fill-rule="nonzero">
            <path d="M1,18.1 C1.23,17.27 1.45,16.43 1.68,15.6 C3.89565738,6.97545145 11.6955673,0.964738618 20.6,1.02 C28.17,1.02 35.75,1.02 43.31,1.38 C64.2,2.48 84.46,6.55 103.75,14.9 C117.823378,20.9419201 130.785891,29.2974172 142.1,39.62 C148.251428,45.2449106 153.890316,51.4058556 158.95,58.03 C159.134446,58.3328048 159.156916,58.7073135 159.01,59.03 C150.74,69.82 141.16,79.19 129.44,86.25 C129.189162,86.4784105 128.850907,86.5855667 128.514306,86.5432512 C128.177704,86.5009356 127.876497,86.3133897 127.69,86.03 C126.32,84.57 124.88,83.17 123.44,81.78 C122.96,81.32 122.87,81.09 123.55,80.72 C133.251287,75.1336348 141.871257,67.8515383 149,59.22 C149.42,58.73 149.49,58.44 149,57.88 C134.344604,40.3831823 115.341044,27.053099 93.9,19.23 C82.1383144,14.928101 69.9271097,11.9725869 57.5,10.42 C45.04,8.77 32.5,8.62 19.99,8.81 C18.3414886,8.87153894 16.7266823,9.29487082 15.26,10.05 C11.2740102,11.8794785 8.76929641,15.9161634 8.9,20.3 C8.86,45.7533333 8.86,71.2066667 8.9,96.66 C8.95432988,103.016249 14.0937513,108.15567 20.45,108.21 L80.68,108.21 C81.277165,108.208 81.8698594,108.312991 82.43,108.52 C89.9278173,111.375829 97.6124755,113.714638 105.43,115.52 C105.85,115.62 106.26,115.77 106.8,115.92 L57.16,115.92 C45.16,115.92 33.23,115.92 21.27,115.92 C15.7299351,116.090673 10.3759152,113.911289 6.53,109.92 C3.81452913,107.159798 2.00718955,103.635835 1.35,99.82 C1.25745615,99.4774118 1.137055,99.1429642 0.99,98.82 C0.996666667,71.9266667 1,45.02 1,18.1 Z" id="Shape"></path>
            <path d="M90.76,1 L176.51,1 C185.836355,0.794033794 193.998265,7.23212819 195.97,16.35 C196.299254,17.8039549 196.470248,19.2892627 196.48,20.78 C196.48,45.9466667 196.48,71.1133333 196.48,96.28 C196.554522,106.134084 189.254782,114.490139 179.48,115.74 C175.515526,116.073897 171.532748,116.134039 167.56,115.92 C161.3,115.78 155.02,115.7 148.78,115.21 C124.78,113.29 101.94,107.44 80.78,95.65 C67.2715582,88.1456578 55.1575779,78.3692258 44.97,66.75 C42.75,64.22 40.66,61.57 38.54,58.95 C38.3538085,58.6477443 38.3312848,58.2723501 38.48,57.95 C46.24,47.83 55.15,38.95 65.96,32.06 C66.79,31.53 67.62,30.99 68.49,30.54 C68.801951,30.41669 69.1549472,30.4579981 69.43,30.65 C71.04,32.19 72.59,33.79 74.18,35.35 C74.63,35.79 74.48,35.96 74.01,36.22 C64.3145722,41.7939273 55.6952846,49.0585135 48.56,57.67 C48.15,58.15 47.94,58.44 48.47,59.08 C63.1604353,76.6078631 82.2148732,89.9501089 103.71,97.76 C115.435023,102.040541 127.605185,104.985801 139.99,106.54 C152.48,108.2 164.99,108.33 177.6,108.16 C179.057315,108.120842 180.490738,107.780362 181.81,107.16 C186.06968,105.422616 188.798308,101.217975 188.65,96.62 C188.69,71.2266667 188.69,45.8366667 188.65,20.45 C188.644486,14.0236908 183.436309,8.81551378 177.01,8.81 C156.963333,8.81 136.916667,8.81 116.87,8.81 C116.240773,8.80327972 115.61775,8.68476985 115.03,8.46 C107.559375,5.61430786 99.9053421,3.27566845 92.12,1.46 C91.72,1.3 91.31,1.16 90.76,1 Z" id="Shape"></path>
            <path d="M98.79,43.11 C107.276147,43.1596756 114.118399,50.0734637 114.079812,58.5596679 C114.041226,67.0458721 107.136385,73.8971529 98.6501372,73.8696558 C90.1638899,73.8421586 83.3035922,66.9462761 83.32,58.46 C83.3859123,49.9630549 90.2927993,43.1097444 98.79,43.11 Z" id="Shape"></path>
        </g>
    </g>
</svg>