<svg xmlns="http://www.w3.org/2000/svg" width="73.165" height="67.392" viewBox="0 0 73.165 67.392">
  <defs>
    <style>
      .cls-1 {
        fill: #2c2e33;
      }

      .cls-1, .cls-2 {
        fill-rule: evenodd;
      }

      .cls-2 {
        fill: #ff471e;
      }
    </style>
  </defs>
  <g id="zmooz" transform="translate(0.001 0.056)">
    <g id="Logotype" transform="translate(-0.001 53.657)">
      <path id="Tracé_189" data-name="Tracé 189" class="cls-1" d="M.97,883.626a.126.126,0,0,1-.141-.141V881.35a.123.123,0,0,1,.141-.137H9.95a.128.128,0,0,1,.115.066.136.136,0,0,1,0,.141l-6,10.447H8.608a.845.845,0,0,1,.612.251.827.827,0,0,1,.251.607v1.413a.125.125,0,0,1-.141.141H.142a.128.128,0,0,1-.123-.07.128.128,0,0,1,0-.136l6-10.447Zm11.336,1.651a3.961,3.961,0,0,1,1.484-3.245,5.546,5.546,0,0,1,3.615-1.127,5.548,5.548,0,0,1,3.619,1.127q.152.125.277.251c.093-.084.185-.168.286-.251a5.535,5.535,0,0,1,3.614-1.127,5.567,5.567,0,0,1,3.619,1.127,3.961,3.961,0,0,1,1.484,3.245v8.862a.126.126,0,0,1-.141.141H28.749a.828.828,0,0,1-.608-.251.851.851,0,0,1-.251-.612v-8.141a1.676,1.676,0,0,0-.586-1.378,3.3,3.3,0,0,0-2.1-.581,3.261,3.261,0,0,0-2.1.581,1.67,1.67,0,0,0-.594,1.378v8.862c0,.093-.044.141-.136.141H20.235c-.088,0-.132-.048-.132-.141v-8.862a1.671,1.671,0,0,0-.594-1.378,3.283,3.283,0,0,0-2.1-.581,3.261,3.261,0,0,0-2.1.581,1.679,1.679,0,0,0-.59,1.378v8.862a.124.124,0,0,1-.141.141H12.438c-.088,0-.132-.048-.132-.141v-8.862Zm27.274-4.372a6.839,6.839,0,1,1-4.838,2,6.579,6.579,0,0,1,4.838-2Zm3.126,3.707a4.427,4.427,0,1,0,1.3,3.134,4.263,4.263,0,0,0-1.3-3.134Zm12.151-3.707a6.839,6.839,0,1,1-4.838,2,6.579,6.579,0,0,1,4.838-2Zm3.126,3.707a4.427,4.427,0,1,0,1.3,3.134,4.263,4.263,0,0,0-1.3-3.134Zm6.067-.986a.126.126,0,0,1-.141-.141V881.35a.123.123,0,0,1,.141-.137H73.03a.128.128,0,0,1,.115.066.136.136,0,0,1,0,.141l-6,10.447h4.539a.845.845,0,0,1,.612.251.827.827,0,0,1,.251.607v1.413a.125.125,0,0,1-.141.141H63.222a.139.139,0,0,1-.123-.207l6-10.447Z" transform="translate(0.001 -880.905)"/>
    </g>
    <g id="Logomark" transform="translate(2.158 -0.056)">
      <path id="Tracé_190" data-name="Tracé 190" class="cls-2" d="M50.958.105A61.593,61.593,0,0,1,71.615,4.844,48.334,48.334,0,0,1,90.559,19.389l.676.855-.676.856a39.641,39.641,0,0,1-6.086,6.237,32.61,32.61,0,0,1-4.164,2.887L78.281,28.2a29.55,29.55,0,0,0,4.45-3,36.156,36.156,0,0,0,4.97-4.95A45.562,45.562,0,0,0,70.522,7.377a61.789,61.789,0,0,0-24.673-4.66H42.287a4.1,4.1,0,0,0-4.1,4.1V33.635a4.117,4.117,0,0,0,4.1,4.1H63.8q2.619,1.029,5.365,1.811,1.874.536,3.8.96H42.287a6.889,6.889,0,0,1-6.87-6.87V6.815a6.889,6.889,0,0,1,6.87-6.87c2.922,0,5.743-.025,8.672.16ZM41.095,12.887V27.565a1.386,1.386,0,1,0,2.772,0V12.887a1.386,1.386,0,1,0-2.772,0Zm57.618,7.338a2.559,2.559,0,1,0-2.561,2.558,2.558,2.558,0,0,0,2.561-2.558Zm2.779,0v13.41a4.1,4.1,0,0,1-4.1,4.1H93.831a61.788,61.788,0,0,1-24.673-4.66A45.562,45.562,0,0,1,51.979,20.206a36.159,36.159,0,0,1,4.97-4.95,29.559,29.559,0,0,1,4.45-3L59.37,10.225a32.6,32.6,0,0,0-4.164,2.888,39.637,39.637,0,0,0-6.086,6.237l-.676.856.676.855A48.334,48.334,0,0,0,68.065,35.607a61.591,61.591,0,0,0,20.657,4.738c2.929.186,5.75.16,8.672.16a6.889,6.889,0,0,0,6.87-6.87V6.815a6.889,6.889,0,0,0-6.87-6.87H66.718q1.924.425,3.8.96,2.742.784,5.365,1.811H97.394a4.117,4.117,0,0,1,4.1,4.1v13.41ZM69.84,14.781a5.445,5.445,0,1,0,5.445,5.445A5.445,5.445,0,0,0,69.84,14.781Z" transform="translate(-35.417 0.056)"/>
    </g>
  </g>
</svg>
